<svg xmlns:dc="http://purl.org/dc/elements/1.1/" xmlns:sodipodi="http://sodipodi.sourceforge.net/DTD/sodipodi-0.dtd" xmlns:inkscape="http://www.inkscape.org/namespaces/inkscape" xmlns:rdf="http://www.w3.org/1999/02/22-rdf-syntax-ns#" xmlns:svg="http://www.w3.org/2000/svg" xmlns:cc="http://creativecommons.org/ns#" xmlns:v="http://schemas.microsoft.com/visio/2003/SVGExtensions/" xmlns="http://www.w3.org/2000/svg" xmlns:xlink="http://www.w3.org/1999/xlink" version="1.1" x="0px" y="0px" viewBox="0 0 100 125" enable-background="new 0 0 100 100" xml:space="preserve"><v:documentProperties v:viewMarkup="false" v:langID="1033"><v:userDefs><v:ud v:nameU="msvNoAutoConnect" v:val="VT0(0):26"/></v:userDefs></v:documentProperties><path d="M22.66,18.644c0.334-0.825,1.28-1.229,2.1-0.894c8.748,3.493,12.188,4.917,13.468,9.393  c2.629-1.385,8.75-2.161,11.772-2.161c3.017,0,9.131,0.776,11.766,2.161c1.274-4.476,4.723-5.9,13.468-9.393  c0.819-0.334,1.767,0.07,2.098,0.894c0.334,0.826-0.071,1.766-0.898,2.1c-8.286,3.311-11.06,4.362-11.882,8.171  c2.24,1.671,4.212,3.852,5.879,6.374C66.571,37.924,57.172,41.12,50,41.12c-7.166,0-16.568-3.202-20.436-5.832  c1.674-2.522,3.638-4.703,5.876-6.374c-0.826-3.809-3.593-4.861-11.878-8.171C22.729,20.41,22.335,19.47,22.66,18.644z   M88.749,57.262c0,1.785-1.447,3.229-3.228,3.229H75.285c-0.239,1.481-0.575,2.937-0.965,4.367l9.627,5.776  c1.533,0.921,2.024,2.901,1.11,4.433c-0.605,1.009-1.675,1.563-2.773,1.563c-0.563,0-1.137-0.146-1.66-0.459l-8.539-5.126  C68.033,79.847,57.873,82.368,50,82.368c-7.878,0-18.046-2.521-22.087-11.322l-8.55,5.124c-0.513,0.315-1.091,0.46-1.654,0.46  c-1.1,0-2.167-0.554-2.772-1.563c-0.921-1.531-0.422-3.512,1.104-4.433l9.634-5.776c-0.394-1.431-0.725-2.887-0.97-4.367H14.479  c-1.787,0-3.229-1.446-3.229-3.229c0-1.784,1.441-3.228,3.229-3.228h9.685c0-1.729,0.135-3.412,0.362-5.057l-8.091-4.694  c-1.526-0.914-2.024-2.9-1.104-4.426c0.915-1.533,2.9-2.03,4.427-1.11l6.307,3.628c0.521-1.507,1.142-2.931,1.838-4.287  C32.142,40.957,42.065,44.35,50,44.35c7.929,0,17.848-3.392,22.088-6.261c0.699,1.355,1.326,2.781,1.838,4.287l6.305-3.628  c1.534-0.92,3.518-0.423,4.432,1.11c0.915,1.525,0.423,3.512-1.108,4.426l-8.086,4.694c0.226,1.645,0.367,3.329,0.367,5.058h9.685  C87.302,54.035,88.749,55.478,88.749,57.262z"/><text x="0" y="115" fill="#000000" font-size="5px" font-weight="bold" font-family="'Helvetica Neue', Helvetica, Arial-Unicode, Arial, Sans-serif">Created by Vasil Enchev</text><text x="0" y="120" fill="#000000" font-size="5px" font-weight="bold" font-family="'Helvetica Neue', Helvetica, Arial-Unicode, Arial, Sans-serif">from the Noun Project</text></svg>